<?xml version="1.0" encoding="UTF-8" standalone="no"?>
<!-- Created for Inkscape (http://www.inkscape.org/) -->

<svg
   xmlns:dc="http://purl.org/dc/elements/1.1/"
   xmlns:cc="http://creativecommons.org/ns#"
   xmlns:rdf="http://www.w3.org/1999/02/22-rdf-syntax-ns#"
   xmlns:svg="http://www.w3.org/2000/svg"
   xmlns="http://www.w3.org/2000/svg"
   xmlns:sodipodi="http://sodipodi.sourceforge.net/DTD/sodipodi-0.dtd"
   xmlns:inkscape="http://www.inkscape.org/namespaces/inkscape"
   width="3200"
   height="800"
   id="svg2985"
   version="1.1"
   inkscape:version="0.48.1 r9760">
  <defs
     id="defs2987" />
  <sodipodi:namedview
     id="base"
     pagecolor="#ffffff"
     bordercolor="#666666"
     borderopacity="1.0"
     inkscape:pageopacity="0.0"
     inkscape:pageshadow="2"
     inkscape:zoom="0.35"
     inkscape:cx="1600"
     inkscape:cy="400"
     inkscape:document-units="px"
     inkscape:current-layer="layer1"
     showgrid="false"  />
  <metadata
     id="metadata2990">
    <rdf:RDF>
      <cc:Work
         rdf:about="">
        <dc:format>image/svg+xml</dc:format>
        <dc:type
           rdf:resource="http://purl.org/dc/dcmitype/StillImage" />
        <dc:title />
      </cc:Work>
    </rdf:RDF>
  </metadata>
  <g
     inkscape:label="Layer 1"
     inkscape:groupmode="layer"
     id="layer1"> 
     <g>
<circle cx="1772.3862" cy="642.8011" r="1.4514706" style="fill:none;stroke:black;stroke-width:2;"/>
<circle cx="1771.0715" cy="680.0342" r="1.2318628" style="fill:none;stroke:black;stroke-width:2;"/>
<circle cx="1747.4299" cy="679.20996" r="2.2612743" style="fill:none;stroke:black;stroke-width:2;"/>
<circle cx="1749.4001" cy="698.35175" r="2.0416665" style="fill:none;stroke:black;stroke-width:2;"/>
<circle cx="1757.1339" cy="716.8659" r="1.8769608" style="fill:none;stroke:black;stroke-width:2;"/>
<circle cx="1751.4167" cy="740.27075" r="1.8906863" style="fill:none;stroke:black;stroke-width:2;"/>
<circle cx="1733.2559" cy="728.8029" r="3.1808825" style="fill:none;stroke:black;stroke-width:2;"/>
<circle cx="1731.7502" cy="711.2589" r="2.727941" style="fill:none;stroke:black;stroke-width:2;"/>
<circle cx="1727.0349" cy="691.7816" r="2.6181371" style="fill:none;stroke:black;stroke-width:2;"/>
<circle cx="1725.6628" cy="669.4612" r="1.6985292" style="fill:none;stroke:black;stroke-width:2;"/>
<circle cx="1755.2192" cy="659.1652" r="1.9181371" style="fill:none;stroke:black;stroke-width:2;"/>
<circle cx="1753.2141" cy="634.47266" r="1.8220587" style="fill:none;stroke:black;stroke-width:2;"/>
<circle cx="1729.8743" cy="646.8534" r="1.7122548" style="fill:none;stroke:black;stroke-width:2;"/>
<circle cx="1732.8318" cy="626.5429" r="2.3848038" style="fill:none;stroke:black;stroke-width:2;"/>
<circle cx="1738.645" cy="608.12024" r="2.2063725" style="fill:none;stroke:black;stroke-width:2;"/>
<circle cx="1706.6287" cy="599.837" r="1.2730391" style="fill:none;stroke:black;stroke-width:2;"/>
<circle cx="1675.6451" cy="608.1443" r="1.2318628" style="fill:none;stroke:black;stroke-width:2;"/>
<circle cx="1696.7766" cy="632.1019" r="1.2181373" style="fill:none;stroke:black;stroke-width:2;"/>
<circle cx="1691.7177" cy="663.70654" r="1.3004901" style="fill:none;stroke:black;stroke-width:2;"/>
<circle cx="1690.419" cy="698.32495" r="1.3142157" style="fill:none;stroke:black;stroke-width:2;"/>
<circle cx="1663.3555" cy="714.32733" r="1.2867646" style="fill:none;stroke:black;stroke-width:2;"/>
<circle cx="1701.1495" cy="730.74805" r="1.1357844" style="fill:none;stroke:black;stroke-width:2;"/>
<circle cx="1677.2028" cy="746.28534" r="1.2455883" style="fill:none;stroke:black;stroke-width:2;"/>
<circle cx="1648.341" cy="746.20447" r="1.3142157" style="fill:none;stroke:black;stroke-width:2;"/>
<circle cx="1621.7563" cy="748.21063" r="1.1906862" style="fill:none;stroke:black;stroke-width:2;"/>
<circle cx="1628.734" cy="719.2456" r="1.410294" style="fill:none;stroke:black;stroke-width:2;"/>
<circle cx="1633.448" cy="689.2991" r="1.3279412" style="fill:none;stroke:black;stroke-width:2;"/>
<circle cx="1663.4933" cy="678.66595" r="1.2181373" style="fill:none;stroke:black;stroke-width:2;"/>
<circle cx="1666.5842" cy="642.86566" r="1.2181373" style="fill:none;stroke:black;stroke-width:2;"/>
<circle cx="1636.2219" cy="653.1079" r="1.3142157" style="fill:none;stroke:black;stroke-width:2;"/>
<circle cx="1611.0829" cy="638.1421" r="1.2730391" style="fill:none;stroke:black;stroke-width:2;"/>
<circle cx="1607.7379" cy="670.22766" r="1.2455883" style="fill:none;stroke:black;stroke-width:2;"/>
<circle cx="1603.4929" cy="700.88544" r="1.3004901" style="fill:none;stroke:black;stroke-width:2;"/>
<circle cx="1592.7972" cy="730.3195" r="1.410294" style="fill:none;stroke:black;stroke-width:2;"/>
<circle cx="1581.8223" cy="755.06445" r="1.684804" style="fill:none;stroke:black;stroke-width:2;"/>
<circle cx="1577.9825" cy="779.1284" r="1.4377451" style="fill:none;stroke:black;stroke-width:2;"/>
<circle cx="1601.2467" cy="777.61365" r="1.2318628" style="fill:none;stroke:black;stroke-width:2;"/>
<circle cx="1635.8877" cy="777.46326" r="1.410294" style="fill:none;stroke:black;stroke-width:2;"/>
<circle cx="1664.2952" cy="776.7809" r="1.3691177" style="fill:none;stroke:black;stroke-width:2;"/>
<circle cx="1695.588" cy="774.2934" r="1.1495099" style="fill:none;stroke:black;stroke-width:2;"/>
<circle cx="1730.6061" cy="784.03723" r="2.4397058" style="fill:none;stroke:black;stroke-width:2;"/>
<circle cx="1723.6951" cy="764.6369" r="2.4534311" style="fill:none;stroke:black;stroke-width:2;"/>
<circle cx="1731.1714" cy="747.25854" r="2.8102942" style="fill:none;stroke:black;stroke-width:2;"/>
<circle cx="1742.4652" cy="767.6008" r="2.4122548" style="fill:none;stroke:black;stroke-width:2;"/>
<circle cx="1761.8347" cy="760.48846" r="1.7259803" style="fill:none;stroke:black;stroke-width:2;"/>
<circle cx="1763.0258" cy="783.1696" r="1.9867647" style="fill:none;stroke:black;stroke-width:2;"/>
<circle cx="1780.6956" cy="766.82825" r="2.0965686" style="fill:none;stroke:black;stroke-width:2;"/>
<circle cx="1805.7279" cy="779.1107" r="1.2181373" style="fill:none;stroke:black;stroke-width:2;"/>
<circle cx="1831.116" cy="780.2821" r="1.382843" style="fill:none;stroke:black;stroke-width:2;"/>
<circle cx="1860.9463" cy="773.0753" r="1.1906862" style="fill:none;stroke:black;stroke-width:2;"/>
<circle cx="1940.0208" cy="715.93445" r="0.8887255" style="fill:none;stroke:black;stroke-width:2;"/>
<circle cx="1858.9817" cy="638.8506" r="1.1632352" style="fill:none;stroke:black;stroke-width:2;"/>
<circle cx="1826.5669" cy="646.6617" r="1.2867646" style="fill:none;stroke:black;stroke-width:2;"/>
<circle cx="1852.6243" cy="674.1039" r="1.1495099" style="fill:none;stroke:black;stroke-width:2;"/>
<circle cx="1848.2871" cy="705.9496" r="1.1632352" style="fill:none;stroke:black;stroke-width:2;"/>
<circle cx="1848.381" cy="736.1964" r="1.1357844" style="fill:none;stroke:black;stroke-width:2;"/>
<circle cx="1830.3516" cy="755.7553" r="1.4377451" style="fill:none;stroke:black;stroke-width:2;"/>
<circle cx="1809.6152" cy="743.8419" r="1.2181373" style="fill:none;stroke:black;stroke-width:2;"/>
<circle cx="1783.5847" cy="735.0803" r="1.547549" style="fill:none;stroke:black;stroke-width:2;"/>
<circle cx="1790.9839" cy="702.83777" r="1.2593136" style="fill:none;stroke:black;stroke-width:2;"/>
<circle cx="1816.7401" cy="714.96967" r="1.2455883" style="fill:none;stroke:black;stroke-width:2;"/>
<circle cx="1816.003" cy="682.7373" r="1.3142157" style="fill:none;stroke:black;stroke-width:2;"/>
<circle cx="1800.3779" cy="657.12006" r="1.2455883" style="fill:none;stroke:black;stroke-width:2;"/>
<circle cx="1806.0437" cy="620.26404" r="1.3553922" style="fill:none;stroke:black;stroke-width:2;"/>
<circle cx="1809.9744" cy="587.5027" r="1.1495099" style="fill:none;stroke:black;stroke-width:2;"/>
<circle cx="1842.489" cy="603.68494" r="1.1083333" style="fill:none;stroke:black;stroke-width:2;"/>
<circle cx="1936.3588" cy="573.7191" r="0.8887255" style="fill:none;stroke:black;stroke-width:2;"/>
<circle cx="1837.7117" cy="563.26825" r="1.0808823" style="fill:none;stroke:black;stroke-width:2;"/>
<circle cx="1848.328" cy="525.71497" r="0.99852943" style="fill:none;stroke:black;stroke-width:2;"/>
<circle cx="1811.2026" cy="535.66077" r="1.1357844" style="fill:none;stroke:black;stroke-width:2;"/>
<circle cx="1787.536" cy="560.1282" r="1.1495099" style="fill:none;stroke:black;stroke-width:2;"/>
<circle cx="1775.0162" cy="531.23987" r="1.0808823" style="fill:none;stroke:black;stroke-width:2;"/>
<circle cx="1755.9253" cy="547.37555" r="2.0416665" style="fill:none;stroke:black;stroke-width:2;"/>
<circle cx="1772.8074" cy="587.1901" r="1.7534313" style="fill:none;stroke:black;stroke-width:2;"/>
<circle cx="1765.2253" cy="611.7705" r="1.6161764" style="fill:none;stroke:black;stroke-width:2;"/>
<circle cx="1742.8015" cy="589.2041" r="2.2338235" style="fill:none;stroke:black;stroke-width:2;"/>
<circle cx="1749.9369" cy="568.85455" r="2.3436275" style="fill:none;stroke:black;stroke-width:2;"/>
<circle cx="1717.3906" cy="565.2467" r="1.2593136" style="fill:none;stroke:black;stroke-width:2;"/>
<circle cx="1689.7971" cy="574.2534" r="1.0808823" style="fill:none;stroke:black;stroke-width:2;"/>
<circle cx="1668.0835" cy="547.6184" r="1.1906862" style="fill:none;stroke:black;stroke-width:2;"/>
<circle cx="1701.6544" cy="540.0198" r="1.2181373" style="fill:none;stroke:black;stroke-width:2;"/>
<circle cx="1729.4865" cy="535.5381" r="1.3691177" style="fill:none;stroke:black;stroke-width:2;"/>
<circle cx="1759.842" cy="511.9194" r="1.382843" style="fill:none;stroke:black;stroke-width:2;"/>
<circle cx="1732.8387" cy="508.7306" r="1.382843" style="fill:none;stroke:black;stroke-width:2;"/>
<circle cx="1703.7281" cy="500.8463" r="1.4240196" style="fill:none;stroke:black;stroke-width:2;"/>
<circle cx="1677.1123" cy="484.9104" r="1.2318628" style="fill:none;stroke:black;stroke-width:2;"/>
<circle cx="1679.7468" cy="518.7463" r="1.2730391" style="fill:none;stroke:black;stroke-width:2;"/>
<circle cx="1645.5215" cy="521.5772" r="1.1495099" style="fill:none;stroke:black;stroke-width:2;"/>
<circle cx="1639.6256" cy="553.80725" r="1.1083333" style="fill:none;stroke:black;stroke-width:2;"/>
<circle cx="1655.5034" cy="583.1044" r="1.1495099" style="fill:none;stroke:black;stroke-width:2;"/>
<circle cx="1627.2068" cy="582.8979" r="1.3142157" style="fill:none;stroke:black;stroke-width:2;"/>
<circle cx="1638.9642" cy="615.728" r="1.1220589" style="fill:none;stroke:black;stroke-width:2;"/>
<circle cx="1608.4146" cy="607.85986" r="1.2318628" style="fill:none;stroke:black;stroke-width:2;"/>
<circle cx="1595.4847" cy="582.09564" r="1.3416667" style="fill:none;stroke:black;stroke-width:2;"/>
<circle cx="1602.0704" cy="555.2435" r="1.2730391" style="fill:none;stroke:black;stroke-width:2;"/>
<circle cx="1614.7273" cy="531.69604" r="1.2181373" style="fill:none;stroke:black;stroke-width:2;"/>
<circle cx="1585.8733" cy="523.10297" r="1.2044117" style="fill:none;stroke:black;stroke-width:2;"/>
<circle cx="1575.9254" cy="547.99805" r="1.2593136" style="fill:none;stroke:black;stroke-width:2;"/>
<circle cx="1553.1077" cy="528.22064" r="1.2318628" style="fill:none;stroke:black;stroke-width:2;"/>
<circle cx="1587.9567" cy="496.1605" r="2.302451" style="fill:none;stroke:black;stroke-width:2;"/>
<circle cx="1585.0198" cy="472.24225" r="2.329902" style="fill:none;stroke:black;stroke-width:2;"/>
<circle cx="1600.3958" cy="483.74347" r="2.8789215" style="fill:none;stroke:black;stroke-width:2;"/>
<circle cx="1610.8478" cy="503.8471" r="2.3573527" style="fill:none;stroke:black;stroke-width:2;"/>
<circle cx="1631.6268" cy="485.28754" r="1.2044117" style="fill:none;stroke:black;stroke-width:2;"/>
<circle cx="1654.1931" cy="495.35315" r="1.3691177" style="fill:none;stroke:black;stroke-width:2;"/>
<circle cx="1665.0603" cy="461.234" r="1.2044117" style="fill:none;stroke:black;stroke-width:2;"/>
<circle cx="1698.2375" cy="462.65793" r="1.3004901" style="fill:none;stroke:black;stroke-width:2;"/>
<circle cx="1689.8662" cy="438.0343" r="1.4240196" style="fill:none;stroke:black;stroke-width:2;"/>
<circle cx="1657.2537" cy="431.7812" r="1.0946078" style="fill:none;stroke:black;stroke-width:2;"/>
<circle cx="1634.3647" cy="457.1097" r="1.1220589" style="fill:none;stroke:black;stroke-width:2;"/>
<circle cx="1600.7927" cy="442.88486" r="2.3985293" style="fill:none;stroke:black;stroke-width:2;"/>
<circle cx="1587.891" cy="427.53854" r="1.410294" style="fill:none;stroke:black;stroke-width:2;"/>
<circle cx="1577.3641" cy="447.55493" r="1.8083334" style="fill:none;stroke:black;stroke-width:2;"/>
<circle cx="1564.8005" cy="465.72516" r="1.7808824" style="fill:none;stroke:black;stroke-width:2;"/>
<circle cx="1556.4087" cy="447.47888" r="2.0279412" style="fill:none;stroke:black;stroke-width:2;"/>
<circle cx="1542.053" cy="436.56992" r="1.9044118" style="fill:none;stroke:black;stroke-width:2;"/>
<circle cx="1563.7784" cy="429.2109" r="2.2063725" style="fill:none;stroke:black;stroke-width:2;"/>
<circle cx="1549.4027" cy="416.73105" r="2.055392" style="fill:none;stroke:black;stroke-width:2;"/>
<circle cx="1543.7559" cy="388.08127" r="2.2063725" style="fill:none;stroke:black;stroke-width:2;"/>
<circle cx="1559.2803" cy="381.30832" r="2.6867647" style="fill:none;stroke:black;stroke-width:2;"/>
<circle cx="1557.9929" cy="400.6043" r="2.2612743" style="fill:none;stroke:black;stroke-width:2;"/>
<circle cx="1579.6157" cy="409.58347" r="1.3691177" style="fill:none;stroke:black;stroke-width:2;"/>
<circle cx="1605.6328" cy="409.96277" r="1.3416667" style="fill:none;stroke:black;stroke-width:2;"/>
<circle cx="1620.5148" cy="425.30084" r="1.8220587" style="fill:none;stroke:black;stroke-width:2;"/>
<circle cx="1640.5018" cy="402.89014" r="1.0808823" style="fill:none;stroke:black;stroke-width:2;"/>
<circle cx="1675.0172" cy="402.21576" r="1.1083333" style="fill:none;stroke:black;stroke-width:2;"/>
<circle cx="1704.6816" cy="415.91553" r="1.2318628" style="fill:none;stroke:black;stroke-width:2;"/>
<circle cx="1724.1613" cy="436.74298" r="1.3004901" style="fill:none;stroke:black;stroke-width:2;"/>
<circle cx="1776.1931" cy="442.70032" r="1.2044117" style="fill:none;stroke:black;stroke-width:2;"/>
<circle cx="1748.8065" cy="449.61652" r="1.2455883" style="fill:none;stroke:black;stroke-width:2;"/>
<circle cx="1723.2474" cy="473.20932" r="1.3553922" style="fill:none;stroke:black;stroke-width:2;"/>
<circle cx="1749.7769" cy="484.48907" r="1.4514706" style="fill:none;stroke:black;stroke-width:2;"/>
<circle cx="1775.0867" cy="472.57483" r="1.1220589" style="fill:none;stroke:black;stroke-width:2;"/>
<circle cx="1797.4524" cy="502.2381" r="1.2044117" style="fill:none;stroke:black;stroke-width:2;"/>
<circle cx="1830.0555" cy="494.99017" r="1.2181373" style="fill:none;stroke:black;stroke-width:2;"/>
<circle cx="1810.4429" cy="463.08875" r="1.0808823" style="fill:none;stroke:black;stroke-width:2;"/>
<circle cx="1827.7278" cy="389.98853" r="0.90245104" style="fill:none;stroke:black;stroke-width:2;"/>
<circle cx="1918.7319" cy="451.6959" r="0.8887255" style="fill:none;stroke:black;stroke-width:2;"/>
<circle cx="1901.2723" cy="361.6532" r="0.8887255" style="fill:none;stroke:black;stroke-width:2;"/>
<circle cx="1837.9336" cy="313.00613" r="0.90245104" style="fill:none;stroke:black;stroke-width:2;"/>
<circle cx="1770.207" cy="294.44287" r="0.90245104" style="fill:none;stroke:black;stroke-width:2;"/>
<circle cx="1754.4202" cy="365.1917" r="0.90245104" style="fill:none;stroke:black;stroke-width:2;"/>
<circle cx="1708.8518" cy="322.00455" r="0.90245104" style="fill:none;stroke:black;stroke-width:2;"/>
<circle cx="1670.354" cy="282.56662" r="1.2455883" style="fill:none;stroke:black;stroke-width:2;"/>
<circle cx="1656.5254" cy="301.2079" r="1.6299019" style="fill:none;stroke:black;stroke-width:2;"/>
<circle cx="1653.6506" cy="325.4781" r="1.4789214" style="fill:none;stroke:black;stroke-width:2;"/>
<circle cx="1646.2446" cy="348.46655" r="1.6024508" style="fill:none;stroke:black;stroke-width:2;"/>
<circle cx="1659.9916" cy="375.7578" r="2.6730392" style="fill:none;stroke:black;stroke-width:2;"/>
<circle cx="1633.1188" cy="366.78186" r="1.7397058" style="fill:none;stroke:black;stroke-width:2;"/>
<circle cx="1612.4126" cy="387.8482" r="1.8495097" style="fill:none;stroke:black;stroke-width:2;"/>
<circle cx="1615.9639" cy="371.06757" r="1.7808824" style="fill:none;stroke:black;stroke-width:2;"/>
<circle cx="1618.9382" cy="349.09653" r="1.4514706" style="fill:none;stroke:black;stroke-width:2;"/>
<circle cx="1628.4718" cy="332.43903" r="1.5887256" style="fill:none;stroke:black;stroke-width:2;"/>
<circle cx="1631.9355" cy="313.47253" r="1.6024508" style="fill:none;stroke:black;stroke-width:2;"/>
<circle cx="1609.9741" cy="322.01782" r="1.8632352" style="fill:none;stroke:black;stroke-width:2;"/>
<circle cx="1589.2318" cy="317.11734" r="1.6161764" style="fill:none;stroke:black;stroke-width:2;"/>
<circle cx="1595.1123" cy="293.1176" r="2.220098" style="fill:none;stroke:black;stroke-width:2;"/>
<circle cx="1618.5844" cy="298.3948" r="1.3004901" style="fill:none;stroke:black;stroke-width:2;"/>
<circle cx="1641.217" cy="269.07782" r="2.8102942" style="fill:none;stroke:black;stroke-width:2;"/>
<circle cx="1624.146" cy="275.2895" r="2.892647" style="fill:none;stroke:black;stroke-width:2;"/>
<circle cx="1607.2953" cy="272.57947" r="3.0710783" style="fill:none;stroke:black;stroke-width:2;"/>
<circle cx="1596.0061" cy="259.67462" r="3.0436273" style="fill:none;stroke:black;stroke-width:2;"/>
<circle cx="1579.041" cy="282.9065" r="1.410294" style="fill:none;stroke:black;stroke-width:2;"/>
<circle cx="1563.9895" cy="288.2708" r="3.1946077" style="fill:none;stroke:black;stroke-width:2;"/>
<circle cx="1551.1155" cy="274.54028" r="3.263235" style="fill:none;stroke:black;stroke-width:2;"/>
<circle cx="1564.5315" cy="267.1532" r="3.4004903" style="fill:none;stroke:black;stroke-width:2;"/>
<circle cx="1569.8843" cy="253.0853" r="3.839706" style="fill:none;stroke:black;stroke-width:2;"/>
<circle cx="1558.7019" cy="243.70091" r="3.0436273" style="fill:none;stroke:black;stroke-width:2;"/>
<circle cx="1549.1028" cy="256.84537" r="2.2338235" style="fill:none;stroke:black;stroke-width:2;"/>
<circle cx="1540.8408" cy="244.88127" r="2.8102942" style="fill:none;stroke:black;stroke-width:2;"/>
<circle cx="1547.5404" cy="233.69737" r="2.7965686" style="fill:none;stroke:black;stroke-width:2;"/>
<circle cx="1551.7551" cy="221.88031" r="3.2357843" style="fill:none;stroke:black;stroke-width:2;"/>
<circle cx="1571.7491" cy="212.94427" r="1.1769607" style="fill:none;stroke:black;stroke-width:2;"/>
<circle cx="1563.2737" cy="229.22543" r="3.812255" style="fill:none;stroke:black;stroke-width:2;"/>
<circle cx="1572.3018" cy="237.77191" r="3.9357843" style="fill:none;stroke:black;stroke-width:2;"/>
<circle cx="1583.4238" cy="230.85057" r="3.7710783" style="fill:none;stroke:black;stroke-width:2;"/>
<circle cx="1592.4666" cy="243.56407" r="3.729902" style="fill:none;stroke:black;stroke-width:2;"/>
<circle cx="1597.2162" cy="228.79985" r="3.537745" style="fill:none;stroke:black;stroke-width:2;"/>
<circle cx="1594.891" cy="199.94983" r="1.1220589" style="fill:none;stroke:black;stroke-width:2;"/>
<circle cx="1621.2124" cy="188.71753" r="0.99852943" style="fill:none;stroke:black;stroke-width:2;"/>
<circle cx="1624.2545" cy="223.86784" r="3.4553921" style="fill:none;stroke:black;stroke-width:2;"/>
<circle cx="1610.1233" cy="222.33878" r="2.6044116" style="fill:none;stroke:black;stroke-width:2;"/>
<circle cx="1612.2397" cy="235.75737" r="2.755392" style="fill:none;stroke:black;stroke-width:2;"/>
<circle cx="1609.2578" cy="250.07126" r="2.2612743" style="fill:none;stroke:black;stroke-width:2;"/>
<circle cx="1623.5701" cy="258.4154" r="2.110294" style="fill:none;stroke:black;stroke-width:2;"/>
<circle cx="1622.5168" cy="243.72632" r="3.6887255" style="fill:none;stroke:black;stroke-width:2;"/>
<circle cx="1638.7068" cy="247.30243" r="2.3436275" style="fill:none;stroke:black;stroke-width:2;"/>
<circle cx="1658.085" cy="259.84387" r="1.3416667" style="fill:none;stroke:black;stroke-width:2;"/>
<circle cx="1652.3838" cy="244.23965" r="3.5240197" style="fill:none;stroke:black;stroke-width:2;"/>
<circle cx="1651.7732" cy="230.73637" r="3.7985294" style="fill:none;stroke:black;stroke-width:2;"/>
<circle cx="1632.2012" cy="234.87299" r="2.5906863" style="fill:none;stroke:black;stroke-width:2;"/>
<circle cx="1639.7573" cy="223.60202" r="2.7965686" style="fill:none;stroke:black;stroke-width:2;"/>
<circle cx="1645.631" cy="200.28142" r="1.1906862" style="fill:none;stroke:black;stroke-width:2;"/>
<circle cx="1646.7346" cy="173.29625" r="1.1906862" style="fill:none;stroke:black;stroke-width:2;"/>
<circle cx="1598.9564" cy="169.6868" r="1.0397058" style="fill:none;stroke:black;stroke-width:2;"/>
<circle cx="1571.9204" cy="160.9617" r="1.2318628" style="fill:none;stroke:black;stroke-width:2;"/>
<circle cx="1570.5886" cy="186.6034" r="1.1357844" style="fill:none;stroke:black;stroke-width:2;"/>
<circle cx="1549.3629" cy="172.42151" r="1.4377451" style="fill:none;stroke:black;stroke-width:2;"/>
<circle cx="1552.929" cy="147.49829" r="2.0279412" style="fill:none;stroke:black;stroke-width:2;"/>
<circle cx="1538.3804" cy="157.39445" r="1.8357842" style="fill:none;stroke:black;stroke-width:2;"/>
<circle cx="1524.783" cy="147.04626" r="2.8377452" style="fill:none;stroke:black;stroke-width:2;"/>
<circle cx="1510.8229" cy="159.03722" r="2.7965686" style="fill:none;stroke:black;stroke-width:2;"/>
<circle cx="1524.4067" cy="166.61018" r="1.9867647" style="fill:none;stroke:black;stroke-width:2;"/>
<circle cx="1524.3076" cy="182.67175" r="2.0142157" style="fill:none;stroke:black;stroke-width:2;"/>
<circle cx="1505.4768" cy="175.96207" r="2.9887254" style="fill:none;stroke:black;stroke-width:2;"/>
<circle cx="1505.4573" cy="192.03879" r="2.5357842" style="fill:none;stroke:black;stroke-width:2;"/>
<circle cx="1504.444" cy="208.47311" r="2.4946077" style="fill:none;stroke:black;stroke-width:2;"/>
<circle cx="1520.977" cy="221.19342" r="2.8377452" style="fill:none;stroke:black;stroke-width:2;"/>
<circle cx="1524.9679" cy="202.30109" r="2.0416665" style="fill:none;stroke:black;stroke-width:2;"/>
<circle cx="1540.1113" cy="188.51524" r="1.7534313" style="fill:none;stroke:black;stroke-width:2;"/>
<circle cx="1547.3276" cy="203.75412" r="1.575" style="fill:none;stroke:black;stroke-width:2;"/>
<circle cx="1536.8735" cy="220.20276" r="3.2357843" style="fill:none;stroke:black;stroke-width:2;"/>
<circle cx="1530.9879" cy="232.76805" r="2.8651962" style="fill:none;stroke:black;stroke-width:2;"/>
<circle cx="1524.6338" cy="245.09814" r="2.8240194" style="fill:none;stroke:black;stroke-width:2;"/>
<circle cx="1512.362" cy="235.57774" r="4.10049" style="fill:none;stroke:black;stroke-width:2;"/>
<circle cx="1504.6954" cy="226.36174" r="3.139706" style="fill:none;stroke:black;stroke-width:2;"/>
<circle cx="1495.9377" cy="242.83633" r="2.1240196" style="fill:none;stroke:black;stroke-width:2;"/>
<circle cx="1511.7286" cy="253.85406" r="2.9063725" style="fill:none;stroke:black;stroke-width:2;"/>
<circle cx="1517.2058" cy="271.4145" r="2.2749999" style="fill:none;stroke:black;stroke-width:2;"/>
<circle cx="1531.4543" cy="259.44525" r="2.2338235" style="fill:none;stroke:black;stroke-width:2;"/>
<circle cx="1533.3386" cy="275.89313" r="2.7416668" style="fill:none;stroke:black;stroke-width:2;"/>
<circle cx="1528.6292" cy="294.36224" r="2.2749999" style="fill:none;stroke:black;stroke-width:2;"/>
<circle cx="1547.4147" cy="291.35278" r="2.5495098" style="fill:none;stroke:black;stroke-width:2;"/>
<circle cx="1558.8401" cy="303.99265" r="2.0416665" style="fill:none;stroke:black;stroke-width:2;"/>
<circle cx="1576.4768" cy="299.53665" r="2.110294" style="fill:none;stroke:black;stroke-width:2;"/>
<circle cx="1569.2915" cy="317.94592" r="2.6181371" style="fill:none;stroke:black;stroke-width:2;"/>
<circle cx="1553.7197" cy="322.84" r="3.1534314" style="fill:none;stroke:black;stroke-width:2;"/>
<circle cx="1543.4049" cy="310.4805" r="2.0691175" style="fill:none;stroke:black;stroke-width:2;"/>
<circle cx="1529.6398" cy="316.43066" r="2.2612743" style="fill:none;stroke:black;stroke-width:2;"/>
<circle cx="1517.101" cy="307.45285" r="2.1240196" style="fill:none;stroke:black;stroke-width:2;"/>
<circle cx="1507.8469" cy="292.67282" r="2.329902" style="fill:none;stroke:black;stroke-width:2;"/>
<circle cx="1495.7799" cy="260.9473" r="1.9455881" style="fill:none;stroke:black;stroke-width:2;"/>
<circle cx="1499.5282" cy="278.6491" r="2.4946077" style="fill:none;stroke:black;stroke-width:2;"/>
<circle cx="1454.8933" cy="308.4402" r="0.90245104" style="fill:none;stroke:black;stroke-width:2;"/>
<circle cx="1393.0321" cy="329.1935" r="0.90245104" style="fill:none;stroke:black;stroke-width:2;"/>
<circle cx="1424.253" cy="245.13951" r="0.90245104" style="fill:none;stroke:black;stroke-width:2;"/>
<circle cx="1356.8063" cy="270.65225" r="0.90245104" style="fill:none;stroke:black;stroke-width:2;"/>
<circle cx="1302.6604" cy="338.2413" r="0.8887255" style="fill:none;stroke:black;stroke-width:2;"/>
<circle cx="1318.5243" cy="452.81885" r="0.8887255" style="fill:none;stroke:black;stroke-width:2;"/>
<circle cx="1369.2285" cy="397.35815" r="0.90245104" style="fill:none;stroke:black;stroke-width:2;"/>
<circle cx="1449.3333" cy="373.42023" r="0.90245104" style="fill:none;stroke:black;stroke-width:2;"/>
<circle cx="1518.1318" cy="329.24506" r="2.1514704" style="fill:none;stroke:black;stroke-width:2;"/>
<circle cx="1538.1624" cy="332.15305" r="2.110294" style="fill:none;stroke:black;stroke-width:2;"/>
<circle cx="1527.6648" cy="344.39536" r="2.3985293" style="fill:none;stroke:black;stroke-width:2;"/>
<circle cx="1544.0435" cy="351.7861" r="2.4946077" style="fill:none;stroke:black;stroke-width:2;"/>
<circle cx="1555.8339" cy="340.61456" r="1.9181371" style="fill:none;stroke:black;stroke-width:2;"/>
<circle cx="1571.8887" cy="333.9485" r="2.2887254" style="fill:none;stroke:black;stroke-width:2;"/>
<circle cx="1591.0696" cy="336.38998" r="2.0004902" style="fill:none;stroke:black;stroke-width:2;"/>
<circle cx="1595.665" cy="358.46362" r="1.3691177" style="fill:none;stroke:black;stroke-width:2;"/>
<circle cx="1595.0377" cy="376.66022" r="1.8769608" style="fill:none;stroke:black;stroke-width:2;"/>
<circle cx="1590.4961" cy="390.5149" r="2.5769606" style="fill:none;stroke:black;stroke-width:2;"/>
<circle cx="1574.0541" cy="389.22083" r="2.727941" style="fill:none;stroke:black;stroke-width:2;"/>
<circle cx="1576.3069" cy="372.10474" r="2.137745" style="fill:none;stroke:black;stroke-width:2;"/>
<circle cx="1574.0276" cy="353.18686" r="1.6710784" style="fill:none;stroke:black;stroke-width:2;"/>
<circle cx="1559.7311" cy="362.38608" r="2.3710783" style="fill:none;stroke:black;stroke-width:2;"/>
<circle cx="1544.9231" cy="370.15155" r="2.4808822" style="fill:none;stroke:black;stroke-width:2;"/>
<circle cx="1529.1593" cy="360.60544" r="2.1514704" style="fill:none;stroke:black;stroke-width:2;"/>
<circle cx="1529.3082" cy="379.33173" r="2.0965686" style="fill:none;stroke:black;stroke-width:2;"/>
<circle cx="1535.4443" cy="402.1184" r="2.0965686" style="fill:none;stroke:black;stroke-width:2;"/>
<circle cx="1521.1102" cy="408.6303" r="2.975" style="fill:none;stroke:black;stroke-width:2;"/>
<circle cx="1526.9702" cy="423.29636" r="3.1808825" style="fill:none;stroke:black;stroke-width:2;"/>
<circle cx="1524.0646" cy="439.6246" r="3.6063726" style="fill:none;stroke:black;stroke-width:2;"/>
<circle cx="1529.2964" cy="456.60275" r="2.6593137" style="fill:none;stroke:black;stroke-width:2;"/>
<circle cx="1544.1895" cy="464.5984" r="2.1789215" style="fill:none;stroke:black;stroke-width:2;"/>
<circle cx="1538.9907" cy="482.15717" r="2.2749999" style="fill:none;stroke:black;stroke-width:2;"/>
<circle cx="1559.9739" cy="500.80038" r="1.1495099" style="fill:none;stroke:black;stroke-width:2;"/>
<circle cx="1529.4902" cy="499.57675" r="1.7534313" style="fill:none;stroke:black;stroke-width:2;"/>
<circle cx="1523.8972" cy="521.20233" r="1.6161764" style="fill:none;stroke:black;stroke-width:2;"/>
<circle cx="1527.0775" cy="544.00415" r="1.8632352" style="fill:none;stroke:black;stroke-width:2;"/>
<circle cx="1504.5608" cy="544.5623" r="1.4651961" style="fill:none;stroke:black;stroke-width:2;"/>
<circle cx="1483.5166" cy="555.87823" r="1.2867646" style="fill:none;stroke:black;stroke-width:2;"/>
<circle cx="1478.728" cy="528.9338" r="1.3691177" style="fill:none;stroke:black;stroke-width:2;"/>
<circle cx="1502.7073" cy="517.3669" r="1.5063725" style="fill:none;stroke:black;stroke-width:2;"/>
<circle cx="1503.066" cy="492.52246" r="1.8906863" style="fill:none;stroke:black;stroke-width:2;"/>
<circle cx="1513.1663" cy="474.82605" r="2.8240194" style="fill:none;stroke:black;stroke-width:2;"/>
<circle cx="1496.5157" cy="473.33997" r="3.1946077" style="fill:none;stroke:black;stroke-width:2;"/>
<circle cx="1476.8533" cy="481.39966" r="1.5612745" style="fill:none;stroke:black;stroke-width:2;"/>
<circle cx="1480.6968" cy="503.16034" r="1.6024508" style="fill:none;stroke:black;stroke-width:2;"/>
<circle cx="1455.6323" cy="510.11847" r="1.547549" style="fill:none;stroke:black;stroke-width:2;"/>
<circle cx="1450.676" cy="489.86078" r="2.082843" style="fill:none;stroke:black;stroke-width:2;"/>
<circle cx="1451.9468" cy="467.68884" r="1.7808824" style="fill:none;stroke:black;stroke-width:2;"/>
<circle cx="1476.6836" cy="454.60153" r="1.9730392" style="fill:none;stroke:black;stroke-width:2;"/>
<circle cx="1497.4396" cy="447.21246" r="1.6436274" style="fill:none;stroke:black;stroke-width:2;"/>
<circle cx="1506.6377" cy="424.0243" r="1.6710784" style="fill:none;stroke:black;stroke-width:2;"/>
<circle cx="1484.872" cy="428.6075" r="1.9044118" style="fill:none;stroke:black;stroke-width:2;"/>
<circle cx="1465.7042" cy="435.36792" r="1.7808824" style="fill:none;stroke:black;stroke-width:2;"/>
<circle cx="1442.4722" cy="444.28467" r="1.9044118" style="fill:none;stroke:black;stroke-width:2;"/>
<circle cx="1423.6821" cy="461.3132" r="1.4651961" style="fill:none;stroke:black;stroke-width:2;"/>
<circle cx="1400.4891" cy="478.69675" r="1.1083333" style="fill:none;stroke:black;stroke-width:2;"/>
<circle cx="1399.0142" cy="507.2093" r="1.6436274" style="fill:none;stroke:black;stroke-width:2;"/>
<circle cx="1399.8324" cy="531.1904" r="2.0416665" style="fill:none;stroke:black;stroke-width:2;"/>
<circle cx="1425.8633" cy="491.9012" r="1.5612745" style="fill:none;stroke:black;stroke-width:2;"/>
<circle cx="1430.2311" cy="517.7788" r="1.4651961" style="fill:none;stroke:black;stroke-width:2;"/>
<circle cx="1456.8925" cy="538.13074" r="1.3142157" style="fill:none;stroke:black;stroke-width:2;"/>
<circle cx="1458.1206" cy="562.6926" r="1.3279412" style="fill:none;stroke:black;stroke-width:2;"/>
<circle cx="1429.6643" cy="544.04425" r="1.5612745" style="fill:none;stroke:black;stroke-width:2;"/>
<circle cx="1428.9727" cy="568.29736" r="1.5063725" style="fill:none;stroke:black;stroke-width:2;"/>
<circle cx="1424.3403" cy="593.58484" r="1.4789214" style="fill:none;stroke:black;stroke-width:2;"/>
<circle cx="1448.8779" cy="586.185" r="1.4377451" style="fill:none;stroke:black;stroke-width:2;"/>
<circle cx="1475.2681" cy="582.8689" r="1.382843" style="fill:none;stroke:black;stroke-width:2;"/>
<circle cx="1500.9766" cy="575.1768" r="1.5338235" style="fill:none;stroke:black;stroke-width:2;"/>
<circle cx="1524.7854" cy="569.2328" r="1.8220587" style="fill:none;stroke:black;stroke-width:2;"/>
<circle cx="1551.1674" cy="558.1522" r="1.2730391" style="fill:none;stroke:black;stroke-width:2;"/>
<circle cx="1571.5682" cy="576.0397" r="1.3142157" style="fill:none;stroke:black;stroke-width:2;"/>
<circle cx="1575.5719" cy="603.3375" r="1.410294" style="fill:none;stroke:black;stroke-width:2;"/>
<circle cx="1581.454" cy="628.44855" r="1.4514706" style="fill:none;stroke:black;stroke-width:2;"/>
<circle cx="1579.3102" cy="656.33057" r="1.382843" style="fill:none;stroke:black;stroke-width:2;"/>
<circle cx="1555.4072" cy="640.9374" r="1.5063725" style="fill:none;stroke:black;stroke-width:2;"/>
<circle cx="1547.0188" cy="616.85864" r="1.3004901" style="fill:none;stroke:black;stroke-width:2;"/>
<circle cx="1548.0553" cy="588.89844" r="1.3279412" style="fill:none;stroke:black;stroke-width:2;"/>
<circle cx="1522.3779" cy="595.205" r="1.6710784" style="fill:none;stroke:black;stroke-width:2;"/>
<circle cx="1515.218" cy="619.3801" r="1.3965685" style="fill:none;stroke:black;stroke-width:2;"/>
<circle cx="1527.4272" cy="638.6054" r="1.4789214" style="fill:none;stroke:black;stroke-width:2;"/>
<circle cx="1502.5172" cy="642.6631" r="1.2867646" style="fill:none;stroke:black;stroke-width:2;"/>
<circle cx="1486.0221" cy="625.0771" r="1.3416667" style="fill:none;stroke:black;stroke-width:2;"/>
<circle cx="1495.2583" cy="602.1282" r="1.3553922" style="fill:none;stroke:black;stroke-width:2;"/>
<circle cx="1468.3114" cy="607.0311" r="1.2593136" style="fill:none;stroke:black;stroke-width:2;"/>
<circle cx="1444.1731" cy="610.37683" r="1.4789214" style="fill:none;stroke:black;stroke-width:2;"/>
<circle cx="1425.5679" cy="620.8452" r="1.4651961" style="fill:none;stroke:black;stroke-width:2;"/>
<circle cx="1411.0645" cy="642.93823" r="1.5063725" style="fill:none;stroke:black;stroke-width:2;"/>
<circle cx="1400.8176" cy="622.3287" r="1.4926469" style="fill:none;stroke:black;stroke-width:2;"/>
<circle cx="1398.9495" cy="597.9577" r="1.4514706" style="fill:none;stroke:black;stroke-width:2;"/>
<circle cx="1401.541" cy="573.52527" r="1.8495097" style="fill:none;stroke:black;stroke-width:2;"/>
<circle cx="1394.5825" cy="553.1864" r="1.547549" style="fill:none;stroke:black;stroke-width:2;"/>
<circle cx="1378.7804" cy="582.1137" r="1.6299019" style="fill:none;stroke:black;stroke-width:2;"/>
<circle cx="1301.6206" cy="544.9508" r="0.8887255" style="fill:none;stroke:black;stroke-width:2;"/>
<circle cx="1227.7115" cy="610.3961" r="0.8887255" style="fill:none;stroke:black;stroke-width:2;"/>
<circle cx="1276.6145" cy="668.5405" r="0.8887255" style="fill:none;stroke:black;stroke-width:2;"/>
<circle cx="1345.5869" cy="626.2241" r="0.90245104" style="fill:none;stroke:black;stroke-width:2;"/>
<circle cx="1378.6345" cy="609.1086" r="2.0279412" style="fill:none;stroke:black;stroke-width:2;"/>
<circle cx="1377.8505" cy="630.88574" r="2.165196" style="fill:none;stroke:black;stroke-width:2;"/>
<circle cx="1386.5642" cy="648.3611" r="2.1514704" style="fill:none;stroke:black;stroke-width:2;"/>
<circle cx="1369.2557" cy="654.43805" r="2.165196" style="fill:none;stroke:black;stroke-width:2;"/>
<circle cx="1364.6687" cy="677.1909" r="1.9593136" style="fill:none;stroke:black;stroke-width:2;"/>
<circle cx="1355.3319" cy="710.3401" r="1.2181373" style="fill:none;stroke:black;stroke-width:2;"/>
<circle cx="1367.4612" cy="696.6068" r="2.0691175" style="fill:none;stroke:black;stroke-width:2;"/>
<circle cx="1384.7014" cy="689.10547" r="2.2749999" style="fill:none;stroke:black;stroke-width:2;"/>
<circle cx="1384.0493" cy="670.15857" r="2.220098" style="fill:none;stroke:black;stroke-width:2;"/>
<circle cx="1402.5701" cy="661.53406" r="1.6710784" style="fill:none;stroke:black;stroke-width:2;"/>
<circle cx="1404.1924" cy="680.4983" r="1.7808824" style="fill:none;stroke:black;stroke-width:2;"/>
<circle cx="1402.7688" cy="699.6943" r="1.7808824" style="fill:none;stroke:black;stroke-width:2;"/>
<circle cx="1426.0027" cy="688.8938" r="1.7671568" style="fill:none;stroke:black;stroke-width:2;"/>
<circle cx="1447.6685" cy="684.3454" r="1.4789214" style="fill:none;stroke:black;stroke-width:2;"/>
<circle cx="1452.1465" cy="660.4114" r="1.4789214" style="fill:none;stroke:black;stroke-width:2;"/>
<circle cx="1426.8872" cy="666.4138" r="1.4240196" style="fill:none;stroke:black;stroke-width:2;"/>
<circle cx="1435.758" cy="642.71265" r="1.4514706" style="fill:none;stroke:black;stroke-width:2;"/>
<circle cx="1457.2201" cy="631.69763" r="1.4514706" style="fill:none;stroke:black;stroke-width:2;"/>
<circle cx="1476.9976" cy="650.72626" r="1.3553922" style="fill:none;stroke:black;stroke-width:2;"/>
<circle cx="1473.6057" cy="677.1616" r="1.4377451" style="fill:none;stroke:black;stroke-width:2;"/>
<circle cx="1466.3975" cy="700.1874" r="1.575" style="fill:none;stroke:black;stroke-width:2;"/>
<circle cx="1464.7109" cy="721.1283" r="1.9181371" style="fill:none;stroke:black;stroke-width:2;"/>
<circle cx="1473.9915" cy="739.22974" r="1.9593136" style="fill:none;stroke:black;stroke-width:2;"/>
<circle cx="1496.3038" cy="739.9863" r="1.8906863" style="fill:none;stroke:black;stroke-width:2;"/>
<circle cx="1509.7524" cy="761.6149" r="1.7259803" style="fill:none;stroke:black;stroke-width:2;"/>
<circle cx="1518.15" cy="737.73706" r="1.4240196" style="fill:none;stroke:black;stroke-width:2;"/>
<circle cx="1537.4326" cy="720.5666" r="1.3965685" style="fill:none;stroke:black;stroke-width:2;"/>
<circle cx="1548.5266" cy="694.11096" r="1.3691177" style="fill:none;stroke:black;stroke-width:2;"/>
<circle cx="1509.8477" cy="711.18774" r="2.165196" style="fill:none;stroke:black;stroke-width:2;"/>
<circle cx="1487.8455" cy="715.3938" r="1.575" style="fill:none;stroke:black;stroke-width:2;"/>
<circle cx="1493.7683" cy="692.36597" r="1.6024508" style="fill:none;stroke:black;stroke-width:2;"/>
<circle cx="1496.9502" cy="669.9553" r="1.4651961" style="fill:none;stroke:black;stroke-width:2;"/>
<circle cx="1517.1318" cy="688.6489" r="1.7259803" style="fill:none;stroke:black;stroke-width:2;"/>
<circle cx="1522.106" cy="663.74976" r="1.3142157" style="fill:none;stroke:black;stroke-width:2;"/>
<circle cx="1549.1205" cy="670.02136" r="1.4240196" style="fill:none;stroke:black;stroke-width:2;"/>
<circle cx="1575.8882" cy="684.2988" r="1.3553922" style="fill:none;stroke:black;stroke-width:2;"/>
<circle cx="1571.0046" cy="710.0646" r="1.6710784" style="fill:none;stroke:black;stroke-width:2;"/>
<circle cx="1567.2212" cy="734.8547" r="1.547549" style="fill:none;stroke:black;stroke-width:2;"/>
<circle cx="1540.9069" cy="751.85657" r="1.4651961" style="fill:none;stroke:black;stroke-width:2;"/>
<circle cx="1549.5015" cy="778.4501" r="1.382843" style="fill:none;stroke:black;stroke-width:2;"/>
<circle cx="1526.5193" cy="778.26355" r="1.3279412" style="fill:none;stroke:black;stroke-width:2;"/>
<circle cx="1499.3208" cy="782.018" r="1.4651961" style="fill:none;stroke:black;stroke-width:2;"/>
<circle cx="1484.8827" cy="759.76807" r="1.547549" style="fill:none;stroke:black;stroke-width:2;"/>
<circle cx="1471.2196" cy="781.1665" r="1.575" style="fill:none;stroke:black;stroke-width:2;"/>
<circle cx="1449.8265" cy="781.39496" r="1.520098" style="fill:none;stroke:black;stroke-width:2;"/>
<circle cx="1428.6714" cy="782.3657" r="1.6573529" style="fill:none;stroke:black;stroke-width:2;"/>
<circle cx="1441.0582" cy="759.5603" r="1.6436274" style="fill:none;stroke:black;stroke-width:2;"/>
<circle cx="1462.0734" cy="758.3563" r="1.5338235" style="fill:none;stroke:black;stroke-width:2;"/>
<circle cx="1446.0287" cy="735.87225" r="1.6024508" style="fill:none;stroke:black;stroke-width:2;"/>
<circle cx="1444.318" cy="710.14764" r="1.6573529" style="fill:none;stroke:black;stroke-width:2;"/>
<circle cx="1422.248" cy="708.2375" r="1.9318626" style="fill:none;stroke:black;stroke-width:2;"/>
<circle cx="1423.4381" cy="726.7819" r="1.9867647" style="fill:none;stroke:black;stroke-width:2;"/>
<circle cx="1422.9634" cy="746.14984" r="2.055392" style="fill:none;stroke:black;stroke-width:2;"/>
<circle cx="1420.8802" cy="765.18994" r="2.0004902" style="fill:none;stroke:black;stroke-width:2;"/>
<circle cx="1404.5409" cy="756.86536" r="2.5906863" style="fill:none;stroke:black;stroke-width:2;"/>
<circle cx="1402.6512" cy="771.0775" r="2.8789215" style="fill:none;stroke:black;stroke-width:2;"/>
<circle cx="1409.624" cy="784.3891" r="3.0985293" style="fill:none;stroke:black;stroke-width:2;"/>
<circle cx="1390.6306" cy="782.66077" r="2.0004902" style="fill:none;stroke:black;stroke-width:2;"/>
<circle cx="1384.5953" cy="764.2092" r="1.9867647" style="fill:none;stroke:black;stroke-width:2;"/>
<circle cx="1377.7876" cy="745.4807" r="2.192647" style="fill:none;stroke:black;stroke-width:2;"/>
<circle cx="1392.0505" cy="748.59595" r="2.7004902" style="fill:none;stroke:black;stroke-width:2;"/>
<circle cx="1405.1271" cy="738.5629" r="2.0279412" style="fill:none;stroke:black;stroke-width:2;"/>
<circle cx="1387.6881" cy="729.92737" r="2.4808822" style="fill:none;stroke:black;stroke-width:2;"/>
<circle cx="1402.6366" cy="719.4216" r="1.8357842" style="fill:none;stroke:black;stroke-width:2;"/>
<circle cx="1386.3059" cy="707.9065" r="2.3848038" style="fill:none;stroke:black;stroke-width:2;"/>
<circle cx="1374.5026" cy="717.42114" r="2.165196" style="fill:none;stroke:black;stroke-width:2;"/>
<circle cx="1366.3514" cy="731.9872" r="1.8083334" style="fill:none;stroke:black;stroke-width:2;"/>
<circle cx="1357.163" cy="751.1764" r="1.4240196" style="fill:none;stroke:black;stroke-width:2;"/>
<circle cx="1361.9722" cy="768.5797" r="1.547549" style="fill:none;stroke:black;stroke-width:2;"/>
<circle cx="1370.9629" cy="782.85486" r="1.9730392" style="fill:none;stroke:black;stroke-width:2;"/>
<circle cx="1349.7664" cy="782.78564" r="1.6985292" style="fill:none;stroke:black;stroke-width:2;"/>
<circle cx="1283.7617" cy="749.95996" r="0.8887255" style="fill:none;stroke:black;stroke-width:2;"/>
<circle cx="1208.5435" cy="753.84174" r="0.8887255" style="fill:none;stroke:black;stroke-width:2;"/>
<circle cx="1114.332" cy="739.7438" r="0.8887255" style="fill:none;stroke:black;stroke-width:2;"/>
<circle cx="1173.523" cy="680.2722" r="0.8887255" style="fill:none;stroke:black;stroke-width:2;"/>
<circle cx="1112.781" cy="607.92773" r="0.8887255" style="fill:none;stroke:black;stroke-width:2;"/>
<circle cx="1176.74" cy="544.35583" r="0.8887255" style="fill:none;stroke:black;stroke-width:2;"/>
<circle cx="1118.9862" cy="463.4648" r="0.8887255" style="fill:none;stroke:black;stroke-width:2;"/>
<circle cx="1224.9956" cy="470.98312" r="0.8887255" style="fill:none;stroke:black;stroke-width:2;"/>
<circle cx="1212.0183" cy="380.70163" r="0.8887255" style="fill:none;stroke:black;stroke-width:2;"/>
<circle cx="1119.2993" cy="335.83475" r="0.8887255" style="fill:none;stroke:black;stroke-width:2;"/>
<circle cx="1205.1685" cy="272.44623" r="0.8887255" style="fill:none;stroke:black;stroke-width:2;"/>
<circle cx="1120.5675" cy="201.92346" r="0.8887255" style="fill:none;stroke:black;stroke-width:2;"/>
<circle cx="1127.4452" cy="71.15243" r="0.8887255" style="fill:none;stroke:black;stroke-width:2;"/>
<circle cx="1239.375" cy="55.309837" r="0.8887255" style="fill:none;stroke:black;stroke-width:2;"/>
<circle cx="1214.644" cy="154.33617" r="0.8887255" style="fill:none;stroke:black;stroke-width:2;"/>
<circle cx="1287.0809" cy="223.35197" r="0.8887255" style="fill:none;stroke:black;stroke-width:2;"/>
<circle cx="1367.5095" cy="188.7649" r="0.90245104" style="fill:none;stroke:black;stroke-width:2;"/>
<circle cx="1439.3293" cy="172.5979" r="0.90245104" style="fill:none;stroke:black;stroke-width:2;"/>
<circle cx="1327.8167" cy="122.4006" r="0.8887255" style="fill:none;stroke:black;stroke-width:2;"/>
<circle cx="1355.4271" cy="45.67256" r="0.90245104" style="fill:none;stroke:black;stroke-width:2;"/>
<circle cx="1410.7794" cy="108.57534" r="0.90245104" style="fill:none;stroke:black;stroke-width:2;"/>
<circle cx="1442.5764" cy="40.298294" r="0.90245104" style="fill:none;stroke:black;stroke-width:2;"/>
<circle cx="1485.0985" cy="96.88573" r="0.90245104" style="fill:none;stroke:black;stroke-width:2;"/>
<circle cx="1530.4708" cy="41.069275" r="0.90245104" style="fill:none;stroke:black;stroke-width:2;"/>
<circle cx="1610.4254" cy="39.931824" r="0.90245104" style="fill:none;stroke:black;stroke-width:2;"/>
<circle cx="1701.4921" cy="36.2934" r="0.90245104" style="fill:none;stroke:black;stroke-width:2;"/>
<circle cx="1669.801" cy="84.37518" r="0.90245104" style="fill:none;stroke:black;stroke-width:2;"/>
<circle cx="1646.8914" cy="140.69266" r="2.755392" style="fill:none;stroke:black;stroke-width:2;"/>
<circle cx="1633.8727" cy="131.7016" r="2.8514705" style="fill:none;stroke:black;stroke-width:2;"/>
<circle cx="1620.4502" cy="126.81316" r="2.892647" style="fill:none;stroke:black;stroke-width:2;"/>
<circle cx="1611.3762" cy="114.093124" r="2.3985293" style="fill:none;stroke:black;stroke-width:2;"/>
<circle cx="1602.9915" cy="127.99193" r="3.029902" style="fill:none;stroke:black;stroke-width:2;"/>
<circle cx="1594.7366" cy="114.902985" r="2.6867647" style="fill:none;stroke:black;stroke-width:2;"/>
<circle cx="1582.7269" cy="124.377945" r="2.6044116" style="fill:none;stroke:black;stroke-width:2;"/>
<circle cx="1578.1909" cy="108.40259" r="1.9044118" style="fill:none;stroke:black;stroke-width:2;"/>
<circle cx="1565.4591" cy="119.68956" r="2.7416668" style="fill:none;stroke:black;stroke-width:2;"/>
<circle cx="1546.6079" cy="118.721054" r="3.002451" style="fill:none;stroke:black;stroke-width:2;"/>
<circle cx="1537.3593" cy="135.3067" r="2.920098" style="fill:none;stroke:black;stroke-width:2;"/>
<circle cx="1554.5044" cy="132.53899" r="2.7965686" style="fill:none;stroke:black;stroke-width:2;"/>
<circle cx="1571.0425" cy="137.53001" r="2.2338235" style="fill:none;stroke:black;stroke-width:2;"/>
<circle cx="1591.9482" cy="140.903" r="2.5495098" style="fill:none;stroke:black;stroke-width:2;"/>
<circle cx="1611.9495" cy="141.38715" r="2.5769606" style="fill:none;stroke:black;stroke-width:2;"/>
<circle cx="1628.5787" cy="151.89946" r="1.3279412" style="fill:none;stroke:black;stroke-width:2;"/>
<circle cx="1657.0837" cy="153.07016" r="2.6455884" style="fill:none;stroke:black;stroke-width:2;"/>
<circle cx="1670.9147" cy="160.85529" r="3.1808825" style="fill:none;stroke:black;stroke-width:2;"/>
<circle cx="1673.3861" cy="176.05974" r="3.0710783" style="fill:none;stroke:black;stroke-width:2;"/>
<circle cx="1666.6163" cy="191.40862" r="1.6710784" style="fill:none;stroke:black;stroke-width:2;"/>
<circle cx="1664.249" cy="212.45712" r="1.9455881" style="fill:none;stroke:black;stroke-width:2;"/>
<circle cx="1666.9149" cy="231.32645" r="3.4416666" style="fill:none;stroke:black;stroke-width:2;"/>
<circle cx="1676.5342" cy="244.23685" r="2.3573527" style="fill:none;stroke:black;stroke-width:2;"/>
<circle cx="1696.4384" cy="262.3869" r="0.9299021" style="fill:none;stroke:black;stroke-width:2;"/>
<circle cx="1680.1772" cy="225.12863" r="2.5906863" style="fill:none;stroke:black;stroke-width:2;"/>
<circle cx="1680.2238" cy="205.40381" r="2.5769606" style="fill:none;stroke:black;stroke-width:2;"/>
<circle cx="1684.5344" cy="188.10387" r="3.2906861" style="fill:none;stroke:black;stroke-width:2;"/>
<circle cx="1755.8589" cy="225.18686" r="0.90245104" style="fill:none;stroke:black;stroke-width:2;"/>
<circle cx="1774.4642" cy="164.14377" r="0.90245104" style="fill:none;stroke:black;stroke-width:2;"/>
<circle cx="1738.46" cy="106.43289" r="0.90245104" style="fill:none;stroke:black;stroke-width:2;"/>
<circle cx="1785.0005" cy="43.5319" r="0.90245104" style="fill:none;stroke:black;stroke-width:2;"/>
<circle cx="1872.7921" cy="47.42616" r="0.8887255" style="fill:none;stroke:black;stroke-width:2;"/>
<circle cx="1830.0056" cy="109.249146" r="0.90245104" style="fill:none;stroke:black;stroke-width:2;"/>
<circle cx="1857.2847" cy="179.3429" r="0.90245104" style="fill:none;stroke:black;stroke-width:2;"/>
<circle cx="1831.655" cy="241.57013" r="0.90245104" style="fill:none;stroke:black;stroke-width:2;"/>
<circle cx="1930.2849" cy="268.62604" r="0.8887255" style="fill:none;stroke:black;stroke-width:2;"/>
<circle cx="1945.1213" cy="143.74179" r="0.8887255" style="fill:none;stroke:black;stroke-width:2;"/>
<circle cx="1982.0778" cy="59.64082" r="0.8887255" style="fill:none;stroke:black;stroke-width:2;"/>
<circle cx="2076.2969" cy="65.9177" r="0.8887255" style="fill:none;stroke:black;stroke-width:2;"/>
<circle cx="2076.2256" cy="175.36963" r="0.8887255" style="fill:none;stroke:black;stroke-width:2;"/>
<circle cx="2004.0657" cy="226.31458" r="0.8887255" style="fill:none;stroke:black;stroke-width:2;"/>
<circle cx="2078.782" cy="305.30133" r="0.8887255" style="fill:none;stroke:black;stroke-width:2;"/>
<circle cx="1996.2051" cy="366.46594" r="0.8887255" style="fill:none;stroke:black;stroke-width:2;"/>
<circle cx="2080.1797" cy="435.77808" r="0.8887255" style="fill:none;stroke:black;stroke-width:2;"/>
<circle cx="2081.6553" cy="569.6195" r="0.8887255" style="fill:none;stroke:black;stroke-width:2;"/>
<circle cx="2088.9514" cy="711.2002" r="0.8887255" style="fill:none;stroke:black;stroke-width:2;"/>
<circle cx="2016.6008" cy="754.0009" r="0.8887255" style="fill:none;stroke:black;stroke-width:2;"/>
<circle cx="2008.3759" cy="636.8659" r="0.8887255" style="fill:none;stroke:black;stroke-width:2;"/>
<circle cx="2002.3654" cy="499.156" r="0.8887255" style="fill:none;stroke:black;stroke-width:2;"/>
</g></g></svg>
